<?xml version="1.0" standalone="no"?>
<!DOCTYPE svg PUBLIC "-//W3C//DTD SVG 20010904//EN"
 "http://www.w3.org/TR/2001/REC-SVG-20010904/DTD/svg10.dtd">
<svg version="1.0" xmlns="http://www.w3.org/2000/svg"
 width="30.000000pt" height="30.000000pt" viewBox="0 0 30.000000 30.000000"
 preserveAspectRatio="xMidYMid meet">

<g transform="translate(0.000000,30.000000) scale(0.100000,-0.100000)"
fill="#000000" stroke="none">
<path d="M102 293 c-35 -7 -89 -66 -96 -107 -22 -114 66 -202 180 -180 108 20
149 168 69 248 -40 41 -85 52 -153 39z m127 -30 c85 -63 75 -186 -20 -236 -92
-49 -208 33 -195 137 12 104 133 159 215 99z"/>
<path d="M100 230 c-14 -11 -31 -25 -37 -30 -7 -6 -13 -28 -13 -49 0 -55 46
-99 101 -97 78 2 129 93 84 152 -8 10 -15 15 -15 10 0 -5 -7 -3 -15 4 -12 10
-18 10 -30 0 -12 -10 -13 -27 -8 -86 6 -72 5 -74 -17 -74 -22 0 -23 1 -16 86
6 66 4 84 -5 78 -8 -5 -9 -3 -4 5 4 7 16 11 26 8 10 -3 22 -1 25 4 10 17 -51
8 -76 -11z m100 -39 c0 -22 -16 -36 -24 -22 -8 12 3 41 15 41 5 0 9 -9 9 -19z
m-109 -71 l-7 -35 -11 32 c-6 17 -9 41 -6 53 5 20 6 20 18 2 9 -12 11 -30 6
-52z m136 -2 l-11 -33 -6 30 c-3 17 -1 40 5 52 9 21 10 21 17 3 4 -11 2 -34
-5 -52z m-40 -40 c-3 -8 -6 -5 -6 6 -1 11 2 17 5 13 3 -3 4 -12 1 -19z"/>
</g>
</svg>
